# xmcd
#
# Track frame offsets:
#	150
#	42892
#	59539
#	79332
#	113525
#	148540
#	165595
#	184442
#	208945
#	224910
#	239175
#	272950
#	307150
#	326352
#
# Disc length: 4696 seconds
#
# Revision: 12
# Processed by: cddbd v1.5.2PL0 Copyright (c) Steve Scherf et al.
# Submitted via: EasyCDDAExtractor 11.5.0.1
#
DISCID=e512560e
DTITLE=Ten Years After - I'm Going Home
DYEAR=1996
DGENRE=R&B
TTITLE0=I'm Going Home
TTITLE1=I'd Love To Change The World
TTITLE2=It's Getting Harder
TTITLE3=Love Like A Man
TTITLE4=Woodchoppers Ball
TTITLE5=Rock And Roll Music To The World
TTITLE6=Me And My Baby
TTITLE7=I Woke Up This Morning
TTITLE8=Stoned Woman
TTITLE9=Choo Choo Mama
TTITLE10=Slow Blues In "C"
TTITLE11=50,000 Miles Beneath My Brain
TTITLE12=Positive Vibrations
TTITLE13=Hear Me Calling
EXTD=
EXTT0=
EXTT1=
EXTT2=
EXTT3=
EXTT4=
EXTT5=
EXTT6=
EXTT7=
EXTT8=
EXTT9=
EXTT10=
EXTT11=
EXTT12=
EXTT13=
PLAYORDER=
